<svg width="20" height="20" viewBox="0 0 20 20" fill="none" xmlns="http://www.w3.org/2000/svg">
<g clip-path="url(#clip0_1260_11927)">
<path d="M19.5625 9.98599C19.5625 4.71411 15.2719 0.425049 10 0.425049C4.72656 0.425049 0.4375 4.71411 0.4375 9.98599V18.6454C0.4375 19.1625 0.857813 19.5829 1.375 19.5829H18.625C19.1422 19.5829 19.5625 19.1625 19.5625 18.6454V9.98599C19.5625 9.98755 19.5625 9.98599 19.5625 9.98599Z" fill="#EA4162"/>
<path d="M10 17.4921C14.1391 17.4921 17.5063 14.125 17.5063 9.98589C17.5063 5.84839 14.1391 2.4812 10 2.4812C5.86096 2.4812 2.49377 5.84839 2.49377 9.98589C2.49377 14.125 5.86096 17.4921 10 17.4921Z" fill="#FFFEFE"/>
<g style="mix-blend-mode:multiply">
<path d="M9.99998 1.68115C14.5797 1.68115 18.3062 5.40771 18.3062 9.9874C18.3062 14.5687 14.5797 18.2952 9.99998 18.2952C5.42029 18.2952 1.69373 14.5671 1.69373 9.98584C1.69373 5.40615 5.41873 1.68115 9.99998 1.68115ZM9.99998 17.4921C14.139 17.4921 17.5062 14.1249 17.5062 9.98584C17.5062 5.84834 14.139 2.48115 9.99998 2.48115C5.86091 2.48115 2.49373 5.84834 2.49373 9.98584C2.49373 14.1249 5.86091 17.4921 9.99998 17.4921Z" fill="#EA4162"/>
</g>
<path d="M3.50779 10.4641C3.77185 10.4641 3.98591 10.25 3.98591 9.98594C3.98591 9.72188 3.77185 9.50781 3.50779 9.50781C3.24373 9.50781 3.02966 9.72188 3.02966 9.98594C3.02966 10.25 3.24373 10.4641 3.50779 10.4641Z" fill="#1C1718"/>
<path d="M3.96405 13.4718C3.90104 13.3617 3.88407 13.2311 3.91684 13.1085C3.94962 12.9859 4.02948 12.8812 4.13905 12.8171C4.36874 12.6843 4.66093 12.7625 4.79374 12.9921C4.92655 13.2218 4.84843 13.514 4.61874 13.6468C4.38905 13.7796 4.0953 13.7015 3.96405 13.4718ZM6.51405 16.0234C6.45948 15.992 6.41166 15.9501 6.37331 15.9002C6.33497 15.8502 6.30686 15.7932 6.2906 15.7324C6.27434 15.6716 6.27025 15.6081 6.27856 15.5457C6.28688 15.4833 6.30743 15.4232 6.33905 15.3687C6.37046 15.3141 6.41234 15.2663 6.46227 15.228C6.51221 15.1896 6.56923 15.1615 6.63005 15.1453C6.69088 15.129 6.75432 15.1249 6.81673 15.1332C6.87914 15.1415 6.93929 15.1621 6.99374 15.1937C7.22343 15.325 7.30311 15.6187 7.1703 15.8484C7.10624 15.9584 7.00125 16.0385 6.87828 16.0713C6.75531 16.1041 6.62436 16.0869 6.51405 16.0234Z" fill="#1C1718"/>
<path d="M13.484 16.0212C13.7127 15.8892 13.791 15.5968 13.659 15.3681C13.527 15.1394 13.2345 15.061 13.0059 15.1931C12.7772 15.3251 12.6988 15.6175 12.8309 15.8462C12.9629 16.0749 13.2553 16.1532 13.484 16.0212Z" fill="#1C1718"/>
<path d="M16.036 13.4719C15.9721 13.5817 15.8673 13.6616 15.7445 13.6941C15.6218 13.7266 15.4911 13.7091 15.3813 13.6454C15.3269 13.614 15.2792 13.5722 15.241 13.5224C15.2027 13.4726 15.1747 13.4157 15.1584 13.3551C15.1422 13.2944 15.138 13.2312 15.1462 13.1689C15.1545 13.1066 15.1749 13.0466 15.2063 12.9922C15.2377 12.9377 15.2796 12.8898 15.3295 12.8515C15.3795 12.8132 15.4365 12.785 15.4973 12.7688C15.5581 12.7525 15.6216 12.7484 15.684 12.7568C15.7464 12.7651 15.8065 12.7856 15.861 12.8172C16.0907 12.9501 16.1688 13.2422 16.036 13.4719ZM16.9704 9.98599C16.9704 10.2516 16.7563 10.4641 16.4922 10.4641C16.3654 10.4641 16.2438 10.4137 16.1542 10.3241C16.0645 10.2344 16.0141 10.1128 16.0141 9.98599C16.0141 9.72037 16.2282 9.5063 16.4922 9.5063C16.7563 9.50787 16.9704 9.72193 16.9704 9.98599ZM16.0376 6.50162C16.1688 6.7313 16.0907 7.02349 15.8626 7.1563C15.6329 7.28912 15.3407 7.21099 15.2079 6.98287C15.1764 6.92831 15.156 6.86808 15.1478 6.80562C15.1396 6.74316 15.1439 6.6797 15.1603 6.61888C15.1767 6.55806 15.2049 6.50107 15.2434 6.45119C15.2818 6.40131 15.3298 6.3595 15.3844 6.32818C15.611 6.1938 15.9047 6.27193 16.0376 6.50162ZM13.4844 3.95005C13.7141 4.08287 13.7907 4.37505 13.661 4.60474C13.5975 4.71483 13.4929 4.79524 13.3701 4.82834C13.2474 4.86144 13.1166 4.84452 13.0063 4.7813C12.8964 4.7176 12.8162 4.61289 12.7834 4.49015C12.7506 4.36741 12.7678 4.23667 12.8313 4.12662C12.8625 4.072 12.9041 4.02409 12.9539 3.98563C13.0036 3.94717 13.0605 3.91893 13.1212 3.90252C13.1819 3.88611 13.2452 3.88186 13.3075 3.89002C13.3699 3.89818 13.43 3.91858 13.4844 3.95005ZM6.51568 3.95005C6.74537 3.8188 7.03756 3.89693 7.17037 4.12505C7.30318 4.35474 7.22506 4.64693 6.99537 4.77974C6.76725 4.91255 6.4735 4.83443 6.34068 4.60474C6.30903 4.55031 6.28844 4.49015 6.2801 4.42773C6.27176 4.36531 6.27584 4.30186 6.2921 4.24102C6.30837 4.18019 6.33649 4.12316 6.37486 4.07323C6.41323 4.02329 6.46109 3.98143 6.51568 3.95005ZM3.96412 6.50162C4.02783 6.3917 4.13254 6.31154 4.25527 6.27873C4.37801 6.24592 4.50875 6.26314 4.61881 6.32662C4.70092 6.37405 4.76712 6.44477 4.80904 6.52983C4.85095 6.61489 4.8667 6.71047 4.85428 6.80448C4.84187 6.89849 4.80185 6.98671 4.73929 7.05797C4.67673 7.12924 4.59444 7.18034 4.50283 7.20483C4.41121 7.22932 4.3144 7.22609 4.22463 7.19554C4.13485 7.165 4.05615 7.10852 3.99849 7.03324C3.94082 6.95796 3.90677 6.86727 3.90066 6.77264C3.89454 6.67801 3.91663 6.58369 3.96412 6.50162Z" fill="#1C1718"/>
<path d="M10 11.2593C10.7025 11.2593 11.2719 10.6899 11.2719 9.98745C11.2719 9.28501 10.7025 8.71558 10 8.71558C9.29759 8.71558 8.72815 9.28501 8.72815 9.98745C8.72815 10.6899 9.29759 11.2593 10 11.2593Z" fill="#1C1718"/>
<path d="M9.40161 10.4281H10.5985V3.60938C10.5985 3.35 10.3891 3.14062 10.1297 3.14062H9.87036C9.61099 3.14062 9.40161 3.35 9.40161 3.60938V10.4281Z" fill="#1C1718"/>
<path d="M10 11.2593C10.7025 11.2593 11.2719 10.6899 11.2719 9.98745C11.2719 9.28501 10.7025 8.71558 10 8.71558C9.29759 8.71558 8.72815 9.28501 8.72815 9.98745C8.72815 10.6899 9.29759 11.2593 10 11.2593Z" fill="#1C1718"/>
<path d="M10.5828 9.52334L10.2734 10.678L6.11714 9.56553C6.05772 9.54966 6.00201 9.52224 5.95319 9.48482C5.90437 9.44741 5.86341 9.40074 5.83265 9.34748C5.80188 9.29422 5.78192 9.23542 5.7739 9.17444C5.76587 9.11346 5.76995 9.05149 5.78589 8.99209L5.85308 8.74053C5.86903 8.68099 5.89656 8.62518 5.93411 8.5763C5.97165 8.52741 6.01847 8.48641 6.07188 8.45564C6.12529 8.42488 6.18424 8.40494 6.24536 8.39699C6.30648 8.38903 6.36858 8.39321 6.42808 8.40928L10.5828 9.52334Z" fill="#1C1718"/>
<path d="M9.99995 10.4641C10.2649 10.4641 10.4796 10.25 10.4796 9.98594C10.4796 9.72188 10.2649 9.50781 9.99995 9.50781C9.73503 9.50781 9.52026 9.72188 9.52026 9.98594C9.52026 10.25 9.73503 10.4641 9.99995 10.4641Z" fill="#FFFEFE"/>
<path d="M9.99995 16.9578C10.1268 16.9578 10.2484 16.9075 10.338 16.8178C10.4277 16.7281 10.4781 16.6065 10.4781 16.4797C10.4781 16.2156 10.2656 16.0016 9.99995 16.0016C9.73589 16.0016 9.52026 16.2156 9.52026 16.4797C9.52026 16.7422 9.73589 16.9594 9.99995 16.9578Z" fill="#1C1718"/>
</g>
<defs>
<clipPath id="clip0_1260_11927">
<rect width="20" height="20" fill="white"/>
</clipPath>
</defs>
</svg>
