<svg width="20" height="20" viewBox="0 0 20 20" fill="none" xmlns="http://www.w3.org/2000/svg">
<g clip-path="url(#clip0_1260_12289)">
<path d="M8.59248 8.787C7.73967 9.62109 6.88685 10.4547 6.03357 11.2884C5.99781 11.1839 5.96762 11.0776 5.94114 10.97C5.68536 9.92761 5.80813 8.91656 6.29506 8.04553C6.74013 7.25088 7.47447 6.59852 8.36368 6.20755C9.67098 5.63338 11.5926 5.55428 13.0125 7.02539L10.5002 9.48118C10.2635 9.24979 10.0272 9.01885 9.79096 8.787L9.19195 8.20101L8.59248 8.787Z" fill="#9D9B9B"/>
<path fill-rule="evenodd" clip-rule="evenodd" d="M10 19.5834C15.2927 19.5834 19.5833 15.2928 19.5833 10.0001C19.5833 4.70735 15.2927 0.416748 10 0.416748C4.70727 0.416748 0.416666 4.70735 0.416666 10.0001C0.416666 15.2928 4.70727 19.5834 10 19.5834ZM15.2448 12.9126L14.7402 13.5777C13.977 14.5842 12.8553 15.3174 11.5819 15.6429C11.0829 15.7702 10.5686 15.8334 10.0537 15.8334C9.28776 15.8334 8.52226 15.6929 7.81071 15.4156C7.00774 15.102 6.28519 14.5958 5.69835 13.9582L4.77615 14.8596L3.57813 13.6886L4.73522 12.5575C4.54548 12.1761 4.39666 11.7729 4.29388 11.3555C3.93857 9.90715 4.11669 8.48832 4.80917 7.25042C5.43003 6.14118 6.44574 5.23469 7.66933 4.69689C8.87246 4.16909 10.2109 4.02953 11.4368 4.30457C12.4953 4.54187 13.4394 5.07194 14.2091 5.85523L13.9035 8.49559L10.5002 11.8224L9.57424 10.9173C9.48927 10.8345 9.40472 10.7518 9.32003 10.6689L9.19149 10.5431C8.42661 11.2913 7.66127 12.0394 6.89592 12.7871C7.32053 13.2676 7.84978 13.6486 8.43902 13.8781C10.2128 14.5701 12.2902 14.0286 13.3808 12.5916L13.8849 11.927L15.2448 12.9126Z" fill="#9D9B9B"/>
</g>
<defs>
<clipPath id="clip0_1260_12289">
<rect width="20" height="20" fill="white"/>
</clipPath>
</defs>
</svg>
