<svg width="32" height="32" viewBox="0 0 32 32" fill="none" xmlns="http://www.w3.org/2000/svg">
<path d="M19.9999 2.66669H7.99992C7.29267 2.66669 6.6144 2.94764 6.1143 3.44774C5.6142 3.94783 5.33325 4.62611 5.33325 5.33335V26.6667C5.33325 27.3739 5.6142 28.0522 6.1143 28.5523C6.6144 29.0524 7.29267 29.3334 7.99992 29.3334H19.9999C20.7072 29.3334 21.3854 29.0524 21.8855 28.5523C22.3856 28.0522 22.6666 27.3739 22.6666 26.6667V24H19.9999V26.6667H7.99992V5.33335H19.9999V8.00002H22.6666V5.33335C22.6666 4.62611 22.3856 3.94783 21.8855 3.44774C21.3854 2.94764 20.7072 2.66669 19.9999 2.66669Z" fill="#DD3C41"/>
<path d="M23.3333 22.6667L21.4533 20.7867L24.8933 17.3334H11.9999V14.6667H24.8933L21.4533 11.2134L23.3333 9.33335L29.9999 16L23.3333 22.6667Z" fill="#DD3C41"/>
</svg>
