<svg xmlns="http://www.w3.org/2000/svg" width="24" height="24" viewBox="0 0 24 24" fill="none">
  <path fill-rule="evenodd" clip-rule="evenodd" d="M12.02 3C9.76151 3 7.70351 3.746 6.48601 4.3555C6.37601 4.4105 6.27351 4.4645 6.17801 4.5165C5.98901 4.6195 5.82801 4.7155 5.70001 4.8L7.08501 6.839L7.73701 7.0985C10.285 8.384 13.702 8.384 16.2505 7.0985L16.9905 6.7145L18.3005 4.8C18.0291 4.623 17.7469 4.46318 17.4555 4.3215C16.2445 3.7185 14.236 3 12.02 3ZM8.79851 5.308C8.30807 5.21622 7.82367 5.09467 7.34801 4.944C8.48851 4.4375 10.1885 3.9 12.0195 3.9C13.288 3.9 14.4875 4.158 15.4795 4.485C14.317 4.6485 13.0765 4.926 11.8945 5.2675C10.9645 5.5365 9.87751 5.5075 8.79851 5.308ZM16.7785 7.84L16.656 7.902C13.8525 9.316 10.1345 9.316 7.33101 7.902L7.21501 7.843C3.00401 12.4635 -0.21099 20.9985 12.02 20.9985C24.25 20.9985 20.9565 12.304 16.7785 7.84ZM11.5 12C11.2348 12 10.9804 12.1054 10.7929 12.2929C10.6054 12.4804 10.5 12.7348 10.5 13C10.5 13.2652 10.6054 13.5196 10.7929 13.7071C10.9804 13.8946 11.2348 14 11.5 14V12ZM12.5 11V10.5H11.5V11C10.9696 11 10.4609 11.2107 10.0858 11.5858C9.71072 11.9609 9.50001 12.4696 9.50001 13C9.50001 13.5304 9.71072 14.0391 10.0858 14.4142C10.4609 14.7893 10.9696 15 11.5 15V17C11.2932 17.0001 11.0915 16.936 10.9226 16.8166C10.7537 16.6973 10.626 16.5285 10.557 16.3335C10.5129 16.2085 10.4208 16.1061 10.3012 16.0489C10.1815 15.9917 10.0441 15.9843 9.91901 16.0285C9.79396 16.0727 9.69157 16.1647 9.63438 16.2843C9.57718 16.404 9.56985 16.5415 9.61401 16.6665C9.75193 17.0565 10.0074 17.3941 10.3451 17.6329C10.6829 17.8718 11.0864 18 11.5 18V18.5H12.5V18C13.0304 18 13.5392 17.7893 13.9142 17.4142C14.2893 17.0391 14.5 16.5304 14.5 16C14.5 15.4696 14.2893 14.9609 13.9142 14.5858C13.5392 14.2107 13.0304 14 12.5 14V12C12.935 12 13.3055 12.2775 13.4435 12.6665C13.464 12.7301 13.497 12.789 13.5406 12.8397C13.5843 12.8903 13.6376 12.9317 13.6975 12.9614C13.7574 12.9911 13.8227 13.0084 13.8894 13.0125C13.9562 13.0165 14.023 13.0071 14.0861 12.9848C14.1491 12.9625 14.207 12.9279 14.2564 12.8828C14.3058 12.8378 14.3457 12.7833 14.3736 12.7225C14.4016 12.6618 14.4171 12.5961 14.4192 12.5293C14.4214 12.4624 14.4101 12.3959 14.386 12.3335C14.2481 11.9435 13.9927 11.6059 13.6549 11.3671C13.3172 11.1282 12.9137 11 12.5 11ZM12.5 15V17C12.7652 17 13.0196 16.8946 13.2071 16.7071C13.3947 16.5196 13.5 16.2652 13.5 16C13.5 15.7348 13.3947 15.4804 13.2071 15.2929C13.0196 15.1054 12.7652 15 12.5 15Z" fill="#9D9B9B"/>
</svg>