<svg width="20" height="20" viewBox="0 0 20 20" fill="none" xmlns="http://www.w3.org/2000/svg">
<g clip-path="url(#clip0_1260_12045)">
<path d="M18.125 20H1.875C0.84375 20 0 19.1562 0 18.125V1.875C0 0.84375 0.84375 0 1.875 0H18.125C19.1562 0 20 0.84375 20 1.875V18.125C20 19.1562 19.1562 20 18.125 20Z" fill="#3CDDD8"/>
<g style="mix-blend-mode:multiply">
<path d="M19.4501 0.550049L0.550049 19.4501C0.890674 19.7891 1.35942 20 1.87505 20H18.125C19.1563 20 20 19.1563 20 18.125V1.87505C20 1.35942 19.7891 0.890674 19.4501 0.550049Z" fill="#3CDDD8"/>
</g>
<g style="mix-blend-mode:screen">
<path d="M17.5001 15.7812C17.5001 16.8172 16.661 17.6562 15.6251 17.6562H4.35791C3.32666 17.6562 2.48291 16.8125 2.48291 15.7812V4.51562C2.48291 3.48437 3.32666 2.64062 4.35791 2.64062H15.6251C16.661 2.64062 17.5001 3.47969 17.5001 4.51562V15.7812Z" fill="#3CDDD8"/>
</g>
<path d="M15.6639 6.71873L14.1108 6.7156L14.403 4.69841C14.4093 4.64998 14.3952 4.60154 14.3639 4.56404C14.3327 4.5281 14.2874 4.50623 14.2389 4.50623L11.8546 4.50154C11.7718 4.49998 11.7014 4.56248 11.6874 4.64373L11.3921 6.70779L9.48582 6.7031L9.77644 4.68591C9.78425 4.63904 9.77019 4.5906 9.73738 4.5531C9.70457 4.51716 9.65925 4.49529 9.61238 4.49529L7.228 4.4906C7.14519 4.4906 7.07332 4.55154 7.06394 4.63435L6.7655 6.69841L5.15613 6.69529C5.06238 6.69529 4.98738 6.77029 4.98738 6.86248L4.98269 8.77966C4.98269 8.87185 5.05769 8.94685 5.14988 8.94685L6.44363 8.94998L6.13738 11.0687L4.34675 11.0625C4.25457 11.0625 4.17957 11.1375 4.17957 11.2297L4.178 13.1469C4.17644 13.239 4.24988 13.314 4.34207 13.314L5.80769 13.3172L5.47332 15.6328C5.46707 15.6812 5.47957 15.7297 5.51394 15.7656C5.54363 15.8015 5.58894 15.8234 5.63894 15.8234L8.02331 15.8297C8.10769 15.8297 8.178 15.7687 8.1905 15.6859L8.52957 13.3234L10.4358 13.3281L10.103 15.6437C10.0968 15.6922 10.1093 15.739 10.1421 15.7765C10.1733 15.814 10.2202 15.8344 10.2671 15.8344L12.6514 15.8406C12.7358 15.8406 12.8061 15.7797 12.8186 15.6953L13.1577 13.3344L14.8561 13.3375C14.9483 13.3375 15.0233 13.2625 15.0233 13.1719L15.028 11.2547C15.028 11.1625 14.953 11.0859 14.8608 11.0859L13.4827 11.0828L13.7858 8.96404L15.6561 8.96873C15.7499 8.96873 15.8264 8.89373 15.8249 8.80154L15.828 6.88435C15.8311 6.79373 15.7561 6.71716 15.6639 6.71873ZM11.0655 8.95779L10.7608 11.075L8.85456 11.0703L9.15769 8.9531L11.0655 8.95779Z" fill="#1C1718"/>
</g>
<defs>
<clipPath id="clip0_1260_12045">
<rect width="20" height="20" fill="white"/>
</clipPath>
</defs>
</svg>
