<svg width="24" height="24" viewBox="0 0 24 24" fill="none" xmlns="http://www.w3.org/2000/svg">
<path d="M17.8125 16.9125C15.3375 21.45 15.375 21.825 14.2125 21.15C13.05 20.475 12.6 19.875 15.1125 15.375C17.625 10.875 18.3375 10.9125 19.5 11.5875C20.625 12.225 20.2875 12.4125 17.8125 16.9125Z" fill="#454749"/>
<path d="M20.1375 18.2625C18.5625 21.15 16.6125 22.5375 15.675 22.0125C14.5125 21.3375 15.1125 21.3375 17.5875 16.8C20.0625 12.2625 19.7625 11.7375 20.925 12.4125C21.8625 12.9375 21.7125 15.375 20.1375 18.2625Z" fill="#258399"/>
<path d="M6.1875 16.9125C8.6625 21.45 8.625 21.825 9.7875 21.15C10.95 20.475 11.4 19.875 8.8875 15.375C6.375 10.875 5.6625 10.9125 4.5 11.5875C3.375 12.225 3.7125 12.4125 6.1875 16.9125Z" fill="#454749"/>
<path d="M3.86254 18.2625C5.43754 21.15 7.38754 22.5375 8.32504 22.0125C9.48754 21.3375 8.88754 21.3375 6.41254 16.8C3.93754 12.2625 4.23754 11.7375 3.07504 12.4125C2.13754 12.9375 2.28754 15.375 3.86254 18.2625Z" fill="#258399"/>
<path d="M4.2375 21.6375C4.2375 21.6375 6.2625 22.1625 6.4125 21.6375C7.35 18.6 2.1375 16.8 2.1375 13.35C2.1375 7.8 6.5625 3.3 12 3.3C17.4375 3.3 21.8625 7.8 21.8625 13.35C21.8625 16.8 16.65 18.6 17.5875 21.6375C17.7375 22.1625 19.7625 21.6375 19.7625 21.6375C21.9 19.5375 23.25 16.6125 23.25 13.35C23.25 7.0125 18.225 1.875 12 1.875C5.775 1.875 0.75 7.0125 0.75 13.35C0.75 16.6125 2.1 19.5375 4.2375 21.6375Z" fill="#3BAACF"/>
<path d="M5.58748 6.59995C6.89998 6.33745 8.58748 4.46245 12 4.46245C15.4125 4.46245 17.1375 6.37495 18.4125 6.59995C18.9375 6.71245 19.8375 5.88745 19.8375 5.88745C17.775 3.52495 15.3375 2.32495 12 2.32495C8.66248 2.32495 6.22498 3.52495 4.16248 5.88745C4.16248 5.92495 5.06248 6.71245 5.58748 6.59995Z" fill="#454749"/>
</svg>
