<svg width="36" height="36" viewBox="0 0 36 36" fill="none" xmlns="http://www.w3.org/2000/svg">
<rect width="36" height="36" rx="18" fill="#231F1F"/>
<path d="M18 26.3334C13.3975 26.3334 9.66663 22.6026 9.66663 18.0001C9.66663 13.3976 13.3975 9.66675 18 9.66675C22.6025 9.66675 26.3333 13.3976 26.3333 18.0001C26.3333 22.6026 22.6025 26.3334 18 26.3334ZM17.1666 20.5001V22.1667H18.8333V20.5001H17.1666ZM18.8333 19.1292C19.503 18.9274 20.078 18.4917 20.4534 17.9015C20.8289 17.3114 20.9799 16.606 20.8789 15.9138C20.7779 15.2216 20.4317 14.5888 19.9033 14.1305C19.3749 13.6721 18.6994 13.4189 18 13.4167C17.3257 13.4167 16.6722 13.6502 16.1506 14.0776C15.6291 14.5049 15.2716 15.0998 15.1391 15.7609L16.7741 16.0884C16.8205 15.8563 16.9319 15.6421 17.0953 15.4708C17.2586 15.2994 17.4673 15.178 17.697 15.1207C17.9267 15.0633 18.1679 15.0723 18.3926 15.1467C18.6174 15.2211 18.8164 15.3578 18.9665 15.5408C19.1166 15.7239 19.2116 15.9458 19.2405 16.1808C19.2694 16.4157 19.231 16.6541 19.1298 16.8681C19.0285 17.0821 18.8686 17.2629 18.6686 17.3895C18.4686 17.5162 18.2367 17.5834 18 17.5834C17.7789 17.5834 17.567 17.6712 17.4107 17.8275C17.2544 17.9838 17.1666 18.1957 17.1666 18.4167V19.6667H18.8333V19.1292Z" fill="#E6E6E6"/>
</svg>
