<svg width="48" height="48" viewBox="0 0 48 48" fill="none" xmlns="http://www.w3.org/2000/svg">
<rect width="48" height="48" rx="24" fill="#3CDDD8"/>
<path d="M20 10.6666H32C33.4667 10.6666 34.6667 11.8666 34.6667 13.3333V34.6666C34.6667 36.1333 33.4667 37.3333 32 37.3333H20C18.5333 37.3333 17.3333 36.1333 17.3333 34.6666V32H20V34.6666H32V13.3333H20V16H17.3333V13.3333C17.3333 11.8666 18.5333 10.6666 20 10.6666Z" fill="#231F1F"/>
<path d="M21.4533 28.7866L23.3333 30.6666L30 24L23.3333 17.3333L21.4533 19.2133L24.8933 22.6666H12V25.3333H24.8933L21.4533 28.7866Z" fill="#231F1F"/>
</svg>
