<svg width="41" height="40" viewBox="0 0 41 40" fill="none" xmlns="http://www.w3.org/2000/svg">
<g opacity="0.6">
<path d="M7.79999 36.35V34.0312C10.1125 33.4375 29.0062 34.0312 33.2 34.0312V36.35C33.2 37.675 27.5125 38.75 20.5 38.75C13.4875 38.75 7.79999 37.675 7.79999 36.35Z" fill="#8B5738"/>
<path d="M20.5 36.3C27.514 36.3 33.2 35.2255 33.2 33.9C33.2 32.5745 27.514 31.5 20.5 31.5C13.486 31.5 7.79999 32.5745 7.79999 33.9C7.79999 35.2255 13.486 36.3 20.5 36.3Z" fill="#FFB17A"/>
<path d="M20.5 36.3C27.514 36.3 33.2 35.2255 33.2 33.9C33.2 32.5745 27.514 31.5 20.5 31.5C13.486 31.5 7.79999 32.5745 7.79999 33.9C7.79999 35.2255 13.486 36.3 20.5 36.3Z" fill="#CC8552"/>
<path opacity="0.75" d="M22.3625 20.4657C22.1281 20.3688 22.0281 20.1782 22.0281 19.925C22.0281 19.6719 22.1062 19.4907 22.3344 19.4125C23.775 18.8313 31.0125 16.0594 31.0125 7.42505L30.9562 5.9188L10.025 5.8938L9.98749 7.47817C9.98749 15.85 17.2 18.8063 18.6375 19.3875C18.8719 19.4844 19.0187 19.6438 19.0187 19.9282C19.0187 20.2125 18.8969 20.3625 18.6656 20.4407C17.225 21.0219 9.98749 23.7938 9.98749 32.4282C10.0054 32.9026 10.1783 33.3581 10.4796 33.7249C10.781 34.0918 11.1943 34.3498 11.6562 34.4594C13.2312 34.8313 16.15 35.2625 21.1969 35.2625C25.5437 35.2625 27.9781 34.9469 29.3312 34.6282C30.2937 34.4 30.9844 33.5532 31.0062 32.5657L31.0094 32.375C31.0125 24.0032 23.8031 21.0469 22.3625 20.4657Z" fill="#81D4FA"/>
<path opacity="0.39" d="M30.9562 5.9188L10.025 5.8938L9.9906 7.3063C9.9906 7.3063 12.2562 8.4688 20.5 8.4688C28.7437 8.4688 31.0093 7.3063 31.0093 7.3063L30.9562 5.9188Z" fill="#1D44B3"/>
<path d="M7.79999 5.60626V3.14688C10.0437 2.84688 29.9594 3.14688 33.2 3.14688V5.60626C33.2 6.65626 27.5125 7.50626 20.5 7.50626C13.4875 7.50626 7.79999 6.65626 7.79999 5.60626Z" fill="#8B5738"/>
<path d="M20.5 5.05C27.514 5.05 33.2 4.19934 33.2 3.15C33.2 2.10066 27.514 1.25 20.5 1.25C13.486 1.25 7.79999 2.10066 7.79999 3.15C7.79999 4.19934 13.486 5.05 20.5 5.05Z" fill="#CC8552"/>
<path d="M28.8094 33.9281C29.0969 33.8438 29.2531 33.5188 29.1125 33.2531C28.1312 31.3969 23.9437 31.3438 22.3594 27.8563C21.3031 25.5281 21.2437 22.2906 21.2125 20.9063C21.1687 19.0344 22.1031 18.6313 22.1031 18.6313C26.5281 16.85 29.7812 12.7375 29.9687 9.06564C29.9875 8.70001 23.0375 11.9313 20.6469 12.3969C16.2281 13.2594 11.825 12.125 11.8 12.2813C13.4375 15.8656 16.7344 17.7375 18.9437 18.6313C19.4687 18.8469 20.3375 19.6625 20.3094 22.1125C20.2875 23.8656 20.0687 28.4875 17.0469 30.4531C15.9094 31.1938 13.3937 32.2781 12.925 33.4563C12.8219 33.7156 12.9687 34.0094 13.2406 34.0781C14.1031 34.2969 16.7344 34.6813 20.825 34.6813C24.0406 34.6844 27.2156 34.3906 28.8094 33.9281Z" fill="#FFCA28"/>
<path d="M13.7406 13.5281C15.4156 14.3937 19.0906 15.6281 20.9031 15.0031C22.7156 14.3781 29.725 9.99995 29.9656 9.06558C30.2656 7.90933 21.8406 10.85 18.875 11.5375C16.8656 12.0031 13.0281 11.7625 12.1656 11.9437C11.3062 12.1218 12.2 12.7312 13.7406 13.5281Z" fill="#E2A610"/>
<path opacity="0.6" d="M14.8094 11.7688C15.2031 12.6875 15.9219 14.7719 14.9844 15.1281C14.0469 15.4875 12.675 14.1563 12.025 12.8188C11.375 11.4813 11.4344 9.70625 12.4156 9.67813C13.3969 9.65 14.2875 10.5531 14.8094 11.7688ZM13.9062 25.1875C12.9281 26.3313 12.1937 27.8688 12.4719 29.3531C12.7656 30.9188 14.2219 30.4875 14.7281 30.0906C16.3406 28.825 15.9 27.2031 17.1469 25.3813C17.3594 25.0688 18.2469 24.0906 18.1219 23.475C18.0469 23.1094 17.1969 22.9219 15.65 23.6969C14.9687 24.0406 14.4094 24.6031 13.9062 25.1875Z" fill="#FFFEFE"/>
</g>
</svg>
