<svg width="48" height="48" viewBox="0 0 48 48" fill="none" xmlns="http://www.w3.org/2000/svg">
<rect width="48" height="48" rx="24" fill="#100E0E"/>
<path d="M17 32H31V34H17V32ZM24 30C21.8783 30 19.8434 29.1571 18.3431 27.6569C16.8429 26.1566 16 24.1217 16 22C16 19.8783 16.8429 17.8434 18.3431 16.3431C19.8434 14.8429 21.8783 14 24 14C26.1217 14 28.1566 14.8429 29.6569 16.3431C31.1571 17.8434 32 19.8783 32 22C32 24.1217 31.1571 26.1566 29.6569 27.6569C28.1566 29.1571 26.1217 30 24 30ZM24 28C25.5913 28 27.1174 27.3679 28.2426 26.2426C29.3679 25.1174 30 23.5913 30 22C30 20.4087 29.3679 18.8826 28.2426 17.7574C27.1174 16.6321 25.5913 16 24 16C22.4087 16 20.8826 16.6321 19.7574 17.7574C18.6321 18.8826 18 20.4087 18 22C18 23.5913 18.6321 25.1174 19.7574 26.2426C20.8826 27.3679 22.4087 28 24 28Z" fill="#9D9B9B"/>
</svg>
