<svg width="97" height="48" viewBox="0 0 97 48" fill="none" xmlns="http://www.w3.org/2000/svg">
<rect width="97" height="48" rx="24" fill="#EA4162"/>
<path d="M32 32C32 32.2653 31.8946 32.5196 31.7071 32.7071C31.5196 32.8947 31.2652 33 31 33H17C16.7348 33 16.4804 32.8947 16.2929 32.7071C16.1054 32.5196 16 32.2653 16 32V23H13L23.327 13.612C23.5111 13.4445 23.7511 13.3517 24 13.3517C24.2489 13.3517 24.4889 13.4445 24.673 13.612L35 23H32V32ZM20 27V29H28V27H20Z" fill="#FFFEFE"/>
<path d="M45.0043 29V18.8182H46.8487V23.1286H51.5668V18.8182H53.4162V29H51.5668V24.6747H46.8487V29H45.0043ZM58.9237 29.1491C58.1779 29.1491 57.5316 28.9851 56.9847 28.657C56.4379 28.3288 56.0136 27.8698 55.712 27.2798C55.4137 26.6899 55.2646 26.0005 55.2646 25.2116C55.2646 24.4228 55.4137 23.7318 55.712 23.1385C56.0136 22.5452 56.4379 22.0845 56.9847 21.7564C57.5316 21.4283 58.1779 21.2642 58.9237 21.2642C59.6694 21.2642 60.3157 21.4283 60.8626 21.7564C61.4094 22.0845 61.832 22.5452 62.1303 23.1385C62.4319 23.7318 62.5827 24.4228 62.5827 25.2116C62.5827 26.0005 62.4319 26.6899 62.1303 27.2798C61.832 27.8698 61.4094 28.3288 60.8626 28.657C60.3157 28.9851 59.6694 29.1491 58.9237 29.1491ZM58.9336 27.7074C59.3379 27.7074 59.676 27.5964 59.9478 27.3743C60.2196 27.1489 60.4218 26.8473 60.5543 26.4695C60.6902 26.0916 60.7582 25.6707 60.7582 25.2067C60.7582 24.7393 60.6902 24.3168 60.5543 23.9389C60.4218 23.5578 60.2196 23.2545 59.9478 23.0291C59.676 22.8037 59.3379 22.6911 58.9336 22.6911C58.5193 22.6911 58.1746 22.8037 57.8995 23.0291C57.6277 23.2545 57.4239 23.5578 57.288 23.9389C57.1554 24.3168 57.0891 24.7393 57.0891 25.2067C57.0891 25.6707 57.1554 26.0916 57.288 26.4695C57.4239 26.8473 57.6277 27.1489 57.8995 27.3743C58.1746 27.5964 58.5193 27.7074 58.9336 27.7074ZM64.3603 29V21.3636H66.0804V22.6612H66.1699C66.329 22.2237 66.5925 21.8823 66.9604 21.6371C67.3283 21.3885 67.7675 21.2642 68.2779 21.2642C68.7949 21.2642 69.2308 21.3902 69.5854 21.642C69.9434 21.8906 70.1953 22.2304 70.3411 22.6612H70.4206C70.5897 22.237 70.8747 21.8989 71.2757 21.647C71.6801 21.3918 72.159 21.2642 72.7125 21.2642C73.4152 21.2642 73.9886 21.4863 74.4327 21.9304C74.8768 22.3745 75.0989 23.0225 75.0989 23.8743V29H73.2942V24.1527C73.2942 23.6787 73.1683 23.3324 72.9164 23.1136C72.6645 22.8916 72.3562 22.7805 71.9917 22.7805C71.5575 22.7805 71.2177 22.9164 70.9725 23.1882C70.7305 23.4567 70.6096 23.8063 70.6096 24.2372V29H68.8446V24.0781C68.8446 23.6837 68.7253 23.3688 68.4867 23.1335C68.2514 22.8982 67.9431 22.7805 67.562 22.7805C67.3034 22.7805 67.0681 22.8468 66.856 22.9794C66.6439 23.1087 66.4748 23.2926 66.3489 23.5312C66.223 23.7666 66.16 24.0417 66.16 24.3565V29H64.3603ZM80.5554 29.1491C79.7898 29.1491 79.1286 28.9901 78.5717 28.6719C78.0182 28.3504 77.5923 27.8963 77.294 27.3097C76.9957 26.7197 76.8466 26.0253 76.8466 25.2266C76.8466 24.4411 76.9957 23.7517 77.294 23.1584C77.5956 22.5618 78.0166 22.0978 78.5568 21.7663C79.0971 21.4316 79.7318 21.2642 80.4609 21.2642C80.9316 21.2642 81.3757 21.3404 81.7933 21.4929C82.2143 21.642 82.5855 21.8741 82.907 22.1889C83.2318 22.5038 83.487 22.9048 83.6726 23.392C83.8582 23.8759 83.951 24.4527 83.951 25.1222V25.674H77.6918V24.4609H82.2259C82.2225 24.1162 82.148 23.8097 82.0021 23.5412C81.8563 23.2694 81.6525 23.0556 81.3906 22.8999C81.1321 22.7441 80.8305 22.6662 80.4858 22.6662C80.1179 22.6662 79.7947 22.7557 79.5163 22.9347C79.2379 23.1103 79.0208 23.3423 78.8651 23.6307C78.7126 23.9157 78.6347 24.2289 78.6314 24.5703V25.6293C78.6314 26.0734 78.7126 26.4545 78.875 26.7727C79.0374 27.0876 79.2644 27.3295 79.5561 27.4986C79.8478 27.6643 80.1892 27.7472 80.5803 27.7472C80.8421 27.7472 81.0791 27.7107 81.2912 27.6378C81.5033 27.5616 81.6873 27.4505 81.843 27.3047C81.9988 27.1589 82.1165 26.9782 82.196 26.7628L83.8764 26.9517C83.7704 27.3958 83.5682 27.7836 83.2699 28.1151C82.9749 28.4432 82.5971 28.6984 82.1364 28.8807C81.6757 29.0597 81.1487 29.1491 80.5554 29.1491Z" fill="#FFFEFE"/>
</svg>
