<svg width="20" height="20" viewBox="0 0 20 20" fill="none" xmlns="http://www.w3.org/2000/svg">
<path fill-rule="evenodd" clip-rule="evenodd" d="M10.0167 2.5C8.13457 2.5 6.41957 3.12167 5.40499 3.62958C5.31332 3.67542 5.2279 3.72042 5.14832 3.76375C4.99082 3.84958 4.85665 3.92958 4.74999 4L5.90415 5.69917L6.44749 5.91542C8.57082 6.98667 11.4183 6.98667 13.5421 5.91542L14.1587 5.59542L15.2504 4C15.0242 3.8525 14.7891 3.71932 14.5462 3.60125C13.5371 3.09875 11.8633 2.5 10.0167 2.5ZM7.33207 4.42333C6.92337 4.34685 6.51971 4.24555 6.12332 4.12C7.07374 3.69792 8.4904 3.25 10.0162 3.25C11.0733 3.25 12.0729 3.465 12.8996 3.7375C11.9308 3.87375 10.8971 4.105 9.91207 4.38958C9.13707 4.61375 8.23124 4.58958 7.33207 4.42333ZM13.9821 6.53333L13.88 6.585C11.5437 7.76333 8.4454 7.76333 6.10915 6.585L6.01249 6.53583C2.50332 10.3863 -0.175845 17.4988 10.0167 17.4988C20.2083 17.4988 17.4637 10.2533 13.9821 6.53333ZM9.58332 10C9.36231 10 9.15035 10.0878 8.99407 10.2441C8.83779 10.4004 8.74999 10.6123 8.74999 10.8333C8.74999 11.0543 8.83779 11.2663 8.99407 11.4226C9.15035 11.5789 9.36231 11.6667 9.58332 11.6667V10ZM10.4167 9.16667V8.75H9.58332V9.16667C9.14129 9.16667 8.71737 9.34226 8.40481 9.65482C8.09225 9.96738 7.91665 10.3913 7.91665 10.8333C7.91665 11.2754 8.09225 11.6993 8.40481 12.0118C8.71737 12.3244 9.14129 12.5 9.58332 12.5V14.1667C9.41098 14.1667 9.24287 14.1133 9.10213 14.0138C8.9614 13.9144 8.85496 13.7737 8.79749 13.6112C8.76069 13.507 8.684 13.4217 8.58429 13.3741C8.48459 13.3264 8.37003 13.3203 8.26582 13.3571C8.16161 13.3939 8.07629 13.4706 8.02863 13.5703C7.98096 13.67 7.97486 13.7845 8.01165 13.8888C8.12659 14.2137 8.33944 14.4951 8.62091 14.6941C8.90237 14.8931 9.23861 15 9.58332 15V15.4167H10.4167V15C10.8587 15 11.2826 14.8244 11.5952 14.5118C11.9077 14.1993 12.0833 13.7754 12.0833 13.3333C12.0833 12.8913 11.9077 12.4674 11.5952 12.1548C11.2826 11.8423 10.8587 11.6667 10.4167 11.6667V10C10.7792 10 11.0879 10.2312 11.2029 10.5554C11.22 10.6085 11.2475 10.6575 11.2839 10.6997C11.3202 10.742 11.3647 10.7764 11.4146 10.8012C11.4645 10.8259 11.5189 10.8404 11.5745 10.8437C11.6301 10.8471 11.6858 10.8392 11.7384 10.8207C11.7909 10.8021 11.8392 10.7732 11.8803 10.7357C11.9215 10.6981 11.9547 10.6527 11.978 10.6021C12.0013 10.5515 12.0142 10.4967 12.016 10.4411C12.0178 10.3854 12.0084 10.3299 11.9883 10.2779C11.8734 9.95293 11.6605 9.67156 11.3791 9.47255C11.0976 9.27354 10.7614 9.16667 10.4167 9.16667ZM10.4167 12.5V14.1667C10.6377 14.1667 10.8496 14.0789 11.0059 13.9226C11.1622 13.7663 11.25 13.5543 11.25 13.3333C11.25 13.1123 11.1622 12.9004 11.0059 12.7441C10.8496 12.5878 10.6377 12.5 10.4167 12.5Z" fill="#FFFEFE"/>
</svg>
