<svg width="24" height="24" viewBox="0 0 24 24" fill="none" xmlns="http://www.w3.org/2000/svg">
<path d="M16.8766 0.10193C17.0234 0.187038 17.137 0.319415 17.1988 0.477437C17.2607 0.635458 17.2671 0.809782 17.2171 0.97193L14.5156 9.74993H19.5001C19.6465 9.74987 19.7898 9.79271 19.9122 9.87316C20.0347 9.9536 20.1308 10.0681 20.1889 10.2026C20.247 10.3371 20.2644 10.4856 20.239 10.6299C20.2136 10.7742 20.1465 10.9078 20.0461 11.0144L8.04605 23.7644C7.92994 23.8879 7.77544 23.9684 7.60772 23.9928C7.43999 24.0172 7.26895 23.9841 7.12246 23.8989C6.97597 23.8136 6.86268 23.6813 6.80104 23.5234C6.73941 23.3655 6.73307 23.1914 6.78305 23.0294L9.48456 14.2499H4.50006C4.35357 14.25 4.21028 14.2071 4.08786 14.1267C3.96545 14.0463 3.86927 13.9317 3.8112 13.7972C3.75313 13.6628 3.73572 13.5142 3.76111 13.37C3.78649 13.2257 3.85357 13.092 3.95405 12.9854L15.9541 0.23543C16.07 0.112129 16.2243 0.0316831 16.3918 0.00717301C16.5593 -0.0173371 16.7301 0.01553 16.8766 0.10043V0.10193ZM6.23556 12.7499H10.5001C10.6174 12.7499 10.7332 12.7774 10.838 12.8303C10.9428 12.8831 11.0337 12.9599 11.1034 13.0543C11.1732 13.1487 11.2198 13.2581 11.2395 13.3738C11.2593 13.4895 11.2516 13.6082 11.2171 13.7204L9.16506 20.3849L17.7631 11.2499H13.5001C13.3827 11.25 13.2669 11.2224 13.1621 11.1696C13.0574 11.1167 12.9664 11.04 12.8967 10.9456C12.8269 10.8512 12.7803 10.7417 12.7606 10.626C12.7409 10.5103 12.7485 10.3916 12.7831 10.2794L14.8351 3.61493L6.23556 12.7499Z" fill="#9D9B9B"/>
</svg>
